<svg width="40" height="24" viewBox="0 0 40 24" fill="none" xmlns="http://www.w3.org/2000/svg">
<path d="M6.66667 23.6668C4.83333 23.6668 3.26389 23.014 1.95833 21.7085C0.652778 20.4029 0 18.8335 0 17.0002C0 15.4168 0.506944 14.0141 1.52083 12.7918C2.53472 11.5696 3.83333 10.8057 5.41667 10.5002L4.25 9.50016H1.25C0.888889 9.50016 0.590278 9.38211 0.354167 9.146C0.118056 8.90988 0 8.61127 0 8.25016C0 7.88905 0.118056 7.59044 0.354167 7.35433C0.590278 7.11822 0.888889 7.00016 1.25 7.00016H7.5L11.6667 9.50016L17.75 7.2085C17.9444 7.15294 18.1389 7.10433 18.3333 7.06266C18.5278 7.021 18.7361 7.00016 18.9583 7.00016H23.5833L21 3.66683H18.3333C17.8611 3.66683 17.4653 3.50711 17.1458 3.18766C16.8264 2.86822 16.6667 2.47238 16.6667 2.00016C16.6667 1.52794 16.8264 1.13211 17.1458 0.812663C17.4653 0.493218 17.8611 0.333496 18.3333 0.333496H20.9583C21.4861 0.333496 21.9792 0.451552 22.4375 0.687663C22.8958 0.923774 23.2778 1.23627 23.5833 1.62516L26.0833 4.8335L30.4583 2.62516C30.7361 2.48627 31.0069 2.50016 31.2708 2.66683C31.5347 2.8335 31.6667 3.06961 31.6667 3.37516V6.16683C31.6667 6.38905 31.5833 6.5835 31.4167 6.75016C31.25 6.91683 31.0556 7.00016 30.8333 7.00016H27.8333L30.75 10.8335C31.1667 10.6668 31.5903 10.5418 32.0208 10.4585C32.4514 10.3752 32.8889 10.3335 33.3333 10.3335C35.1667 10.3335 36.7361 10.9863 38.0417 12.2918C39.3472 13.5974 40 15.1668 40 17.0002C40 18.8335 39.3472 20.4029 38.0417 21.7085C36.7361 23.014 35.1667 23.6668 33.3333 23.6668C31.5 23.6668 29.9306 23.014 28.625 21.7085C27.3194 20.4029 26.6667 18.8335 26.6667 17.0002C26.6667 16.2502 26.7986 15.521 27.0625 14.8127C27.3264 14.1043 27.6944 13.4446 28.1667 12.8335L27.3333 11.8335L22.1667 19.5835C22.0278 19.8057 21.8333 19.9863 21.5833 20.1252C21.3333 20.264 21.0694 20.3335 20.7917 20.3335H17.2917C17.0694 20.3335 16.8681 20.2988 16.6875 20.2293C16.5069 20.1599 16.3472 20.0557 16.2083 19.9168L13.3333 17.4168C13.1944 19.1668 12.4861 20.646 11.2083 21.8543C9.93056 23.0627 8.41667 23.6668 6.66667 23.6668ZM6.66667 20.3335C7.58333 20.3335 8.36806 20.0071 9.02083 19.3543C9.67361 18.7016 10 17.9168 10 17.0002C10 16.0835 9.67361 15.2988 9.02083 14.646C8.36806 13.9932 7.58333 13.6668 6.66667 13.6668C5.75 13.6668 4.96528 13.9932 4.3125 14.646C3.65972 15.2988 3.33333 16.0835 3.33333 17.0002C3.33333 17.9168 3.65972 18.7016 4.3125 19.3543C4.96528 20.0071 5.75 20.3335 6.66667 20.3335ZM33.3333 20.3335C34.25 20.3335 35.0347 20.0071 35.6875 19.3543C36.3403 18.7016 36.6667 17.9168 36.6667 17.0002C36.6667 16.0835 36.3403 15.2988 35.6875 14.646C35.0347 13.9932 34.25 13.6668 33.3333 13.6668C32.4167 13.6668 31.6319 13.9932 30.9792 14.646C30.3264 15.2988 30 16.0835 30 17.0002C30 17.9168 30.3264 18.7016 30.9792 19.3543C31.6319 20.0071 32.4167 20.3335 33.3333 20.3335ZM19.9167 17.0002L24.3333 10.3335H18.9167L12.9167 12.5835L17.9167 17.0002H19.9167Z" fill="white"/>
</svg>
