<svg width="24" height="38" viewBox="0 0 24 38" fill="none" xmlns="http://www.w3.org/2000/svg">
<path d="M3.66671 37.3332C2.75004 37.3332 1.96532 37.0068 1.31254 36.354C0.659763 35.7012 0.333374 34.9165 0.333374 33.9998V3.99984C0.333374 3.08317 0.659763 2.29845 1.31254 1.64567C1.96532 0.992893 2.75004 0.666504 3.66671 0.666504H20.3334C21.25 0.666504 22.0348 0.992893 22.6875 1.64567C23.3403 2.29845 23.6667 3.08317 23.6667 3.99984V33.9998C23.6667 34.9165 23.3403 35.7012 22.6875 36.354C22.0348 37.0068 21.25 37.3332 20.3334 37.3332H3.66671ZM3.66671 28.9998V33.9998H20.3334V28.9998H3.66671ZM12 33.1665C12.4723 33.1665 12.8681 33.0068 13.1875 32.6873C13.507 32.3679 13.6667 31.9721 13.6667 31.4998C13.6667 31.0276 13.507 30.6318 13.1875 30.3123C12.8681 29.9929 12.4723 29.8332 12 29.8332C11.5278 29.8332 11.132 29.9929 10.8125 30.3123C10.4931 30.6318 10.3334 31.0276 10.3334 31.4998C10.3334 31.9721 10.4931 32.3679 10.8125 32.6873C11.132 33.0068 11.5278 33.1665 12 33.1665ZM3.66671 25.6665H20.3334V8.99984H3.66671V25.6665ZM3.66671 5.6665H20.3334V3.99984H3.66671V5.6665Z" fill="white"/>
</svg>
