<svg width="58" height="60" viewBox="0 0 58 60" fill="none" xmlns="http://www.w3.org/2000/svg">
<path fill-rule="evenodd" clip-rule="evenodd" d="M0.111084 6.66667C0.111084 4.89856 0.813463 3.20286 2.06371 1.95262C3.31395 0.702379 5.00964 0 6.77775 0L42.3333 0C44.1014 0 45.7971 0.702379 47.0474 1.95262C48.2976 3.20286 49 4.89856 49 6.66667V8.88889C49 9.47826 48.7659 10.0435 48.3491 10.4602C47.9324 10.877 47.3671 11.1111 46.7778 11.1111C46.1884 11.1111 45.6231 10.877 45.2064 10.4602C44.7897 10.0435 44.5555 9.47826 44.5555 8.88889V6.66667C44.5555 6.0773 44.3214 5.51207 43.9047 5.09532C43.4879 4.67857 42.9227 4.44444 42.3333 4.44444H6.77775C6.18838 4.44444 5.62315 4.67857 5.2064 5.09532C4.78965 5.51207 4.55553 6.0773 4.55553 6.66667V51.1111C4.55553 51.7005 4.78965 52.2657 5.2064 52.6825C5.62315 53.0992 6.18838 53.3333 6.77775 53.3333H24.5555C25.1449 53.3333 25.7101 53.5675 26.1269 53.9842C26.5436 54.401 26.7778 54.9662 26.7778 55.5556C26.7778 56.1449 26.5436 56.7102 26.1269 57.1269C25.7101 57.5437 25.1449 57.7778 24.5555 57.7778H6.77775C5.00964 57.7778 3.31395 57.0754 2.06371 55.8252C0.813463 54.5749 0.111084 52.8792 0.111084 51.1111L0.111084 6.66667ZM11.2222 20C11.2222 19.4106 11.4563 18.8454 11.8731 18.4287C12.2898 18.0119 12.855 17.7778 13.4444 17.7778H31.2222C31.8116 17.7778 32.3768 18.0119 32.7935 18.4287C33.2103 18.8454 33.4444 19.4106 33.4444 20C33.4444 20.5894 33.2103 21.1546 32.7935 21.5713C32.3768 21.9881 31.8116 22.2222 31.2222 22.2222H13.4444C12.855 22.2222 12.2898 21.9881 11.8731 21.5713C11.4563 21.1546 11.2222 20.5894 11.2222 20ZM13.4444 26.6667C12.855 26.6667 12.2898 26.9008 11.8731 27.3175C11.4563 27.7343 11.2222 28.2995 11.2222 28.8889C11.2222 29.4783 11.4563 30.0435 11.8731 30.4602C12.2898 30.877 12.855 31.1111 13.4444 31.1111H24.5555C25.1449 31.1111 25.7101 30.877 26.1269 30.4602C26.5436 30.0435 26.7778 29.4783 26.7778 28.8889C26.7778 28.2995 26.5436 27.7343 26.1269 27.3175C25.7101 26.9008 25.1449 26.6667 24.5555 26.6667H13.4444ZM11.2222 37.7778C11.2222 37.1884 11.4563 36.6232 11.8731 36.2064C12.2898 35.7897 12.855 35.5556 13.4444 35.5556H20.1111C20.7005 35.5556 21.2657 35.7897 21.6824 36.2064C22.0992 36.6232 22.3333 37.1884 22.3333 37.7778C22.3333 38.3671 22.0992 38.9324 21.6824 39.3491C21.2657 39.7659 20.7005 40 20.1111 40H13.4444C12.855 40 12.2898 39.7659 11.8731 39.3491C11.4563 38.9324 11.2222 38.3671 11.2222 37.7778ZM42.3333 15.5556C41.909 15.5554 41.4936 15.6766 41.136 15.905C40.7784 16.1334 40.4937 16.4594 40.3155 16.8444L33.6489 31.2889C33.4921 31.6276 33.4232 32.0003 33.4485 32.3726C33.4737 32.745 33.5923 33.105 33.7934 33.4194C33.9944 33.7338 34.2714 33.9925 34.5988 34.1717C34.9262 34.3508 35.2934 34.4446 35.6666 34.4444H39.2066L31.3444 57.0467C31.1679 57.5491 31.1777 58.0982 31.372 58.594C31.5663 59.0898 31.9322 59.4993 32.403 59.7481C32.8738 59.9968 33.4183 60.0682 33.9374 59.9493C34.4565 59.8303 34.9155 59.5289 35.2311 59.1L57.4533 29.1C57.6982 28.7692 57.8464 28.3769 57.8814 27.9668C57.9164 27.5568 57.8369 27.145 57.6516 26.7775C57.4664 26.41 57.1827 26.1011 56.8322 25.8854C56.4817 25.6696 56.0782 25.5554 55.6666 25.5556H52.42L55.4755 18.68C55.6258 18.3416 55.6892 17.9711 55.66 17.602C55.6307 17.2329 55.5096 16.877 55.3078 16.5666C55.1061 16.2562 54.8299 16.0011 54.5045 15.8245C54.179 15.648 53.8147 15.5555 53.4444 15.5556H42.3333ZM39.14 30L43.7555 20H50.0244L46.9689 26.8756C46.8185 27.2139 46.7551 27.5845 46.7844 27.9535C46.8137 28.3226 46.9348 28.6785 47.1365 28.989C47.3383 29.2994 47.6145 29.5545 47.9399 29.731C48.2654 29.9076 48.6297 30 49 30H51.2555L40.3289 44.7511L44.4333 32.9511C44.5496 32.6162 44.5841 32.2584 44.5338 31.9074C44.4836 31.5565 44.3502 31.2227 44.1446 30.9338C43.9391 30.645 43.6674 30.4095 43.3523 30.247C43.0372 30.0846 42.6878 29.9999 42.3333 30H39.14Z" fill="white"/>
</svg>
