<svg width="40" height="36" viewBox="0 0 40 36" fill="none" xmlns="http://www.w3.org/2000/svg">
<path d="M6.75 31.5V32.625C6.75 33.5625 6.42188 34.3594 5.76562 35.0156C5.10938 35.6719 4.3125 36 3.375 36C2.4375 36 1.64062 35.6719 0.984375 35.0156C0.328125 34.3594 0 33.5625 0 32.625V16.5375C0 16.275 0.01875 16.0125 0.05625 15.75C0.09375 15.4875 0.15 15.2437 0.225 15.0187L4.44375 3.0375C4.74375 2.1375 5.2875 1.40625 6.075 0.84375C6.8625 0.28125 7.74375 0 8.71875 0H31.7812C32.7562 0 33.6375 0.28125 34.425 0.84375C35.2125 1.40625 35.7562 2.1375 36.0562 3.0375L40.275 15.0187C40.35 15.2437 40.4062 15.4875 40.4437 15.75C40.4812 16.0125 40.5 16.275 40.5 16.5375V32.625C40.5 33.5625 40.1719 34.3594 39.5156 35.0156C38.8594 35.6719 38.0625 36 37.125 36C36.1875 36 35.3906 35.6719 34.7344 35.0156C34.0781 34.3594 33.75 33.5625 33.75 32.625V31.5H6.75ZM6.3 11.25H34.2L31.8375 4.5H8.6625L6.3 11.25ZM10.125 24.75C11.0625 24.75 11.8594 24.4219 12.5156 23.7656C13.1719 23.1094 13.5 22.3125 13.5 21.375C13.5 20.4375 13.1719 19.6406 12.5156 18.9844C11.8594 18.3281 11.0625 18 10.125 18C9.1875 18 8.39062 18.3281 7.73438 18.9844C7.07812 19.6406 6.75 20.4375 6.75 21.375C6.75 22.3125 7.07812 23.1094 7.73438 23.7656C8.39062 24.4219 9.1875 24.75 10.125 24.75ZM30.375 24.75C31.3125 24.75 32.1094 24.4219 32.7656 23.7656C33.4219 23.1094 33.75 22.3125 33.75 21.375C33.75 20.4375 33.4219 19.6406 32.7656 18.9844C32.1094 18.3281 31.3125 18 30.375 18C29.4375 18 28.6406 18.3281 27.9844 18.9844C27.3281 19.6406 27 20.4375 27 21.375C27 22.3125 27.3281 23.1094 27.9844 23.7656C28.6406 24.4219 29.4375 24.75 30.375 24.75ZM4.5 27H36V15.75H4.5V27Z" fill="white"/>
</svg>
