<svg width="40" height="29" viewBox="0 0 40 29" fill="none" xmlns="http://www.w3.org/2000/svg">
<path d="M3.33333 28.3333C2.41667 28.3333 1.63194 28.0069 0.979167 27.3542C0.326389 26.7014 0 25.9167 0 25H6.66667C5.75 25 4.96528 24.6736 4.3125 24.0208C3.65972 23.3681 3.33333 22.5833 3.33333 21.6667V3.33333C3.33333 2.41667 3.65972 1.63194 4.3125 0.979167C4.96528 0.326389 5.75 0 6.66667 0H33.3333C34.25 0 35.0347 0.326389 35.6875 0.979167C36.3403 1.63194 36.6667 2.41667 36.6667 3.33333V21.6667C36.6667 22.5833 36.3403 23.3681 35.6875 24.0208C35.0347 24.6736 34.25 25 33.3333 25H40C40 25.9167 39.6736 26.7014 39.0208 27.3542C38.3681 28.0069 37.5833 28.3333 36.6667 28.3333H3.33333ZM20 26.6667C20.4722 26.6667 20.8681 26.5069 21.1875 26.1875C21.5069 25.8681 21.6667 25.4722 21.6667 25C21.6667 24.5278 21.5069 24.1319 21.1875 23.8125C20.8681 23.4931 20.4722 23.3333 20 23.3333C19.5278 23.3333 19.1319 23.4931 18.8125 23.8125C18.4931 24.1319 18.3333 24.5278 18.3333 25C18.3333 25.4722 18.4931 25.8681 18.8125 26.1875C19.1319 26.5069 19.5278 26.6667 20 26.6667ZM6.66667 21.6667H33.3333V3.33333H6.66667V21.6667Z" fill="white"/>
</svg>
